<?xml version="1.0" standalone="no"?>
<!DOCTYPE svg PUBLIC "-//W3C//DTD SVG 1.1//EN" "http://www.w3.org/Graphics/SVG/1.1/DTD/svg11.dtd" >
<svg>
<metadata>
Created by FontForge 20110222 at Tue May  6 01:31:13 2014
 By Orthosie Webhosting
Copyright (c) 2009 Autonomous Non-Commercial Organisation "Organizing Committee of the XXII Olympic Winter Games and XI Paralympic Winter Games of 2014 in Sochi"
</metadata>
<defs>
<font id="Sochi2014Medium" horiz-adv-x="1234" >
  <font-face 
    font-family="Sochi2014Medium"
    font-weight="500"
    font-stretch="normal"
    units-per-em="2048"
    panose-1="2 11 7 4 3 2 4 8 3 4"
    ascent="1638"
    descent="-410"
    x-height="1065"
    cap-height="1491"
    bbox="-128 -512 1977 2020"
    underline-thickness="102"
    underline-position="-102"
    unicode-range="U+000D-E000"
  />
<missing-glyph horiz-adv-x="748" 
d="M68 0v1365h544v-1365h-544zM136 68h408v1229h-408v-1229z" />
    <glyph glyph-name=".notdef" horiz-adv-x="748" 
d="M68 0v1365h544v-1365h-544zM136 68h408v1229h-408v-1229z" />
    <glyph glyph-name="glyph1" horiz-adv-x="2048" 
 />
    <glyph glyph-name="glyph1" horiz-adv-x="2048" 
 />
    <glyph glyph-name="uni000D" unicode="&#xd;" horiz-adv-x="2048" 
 />
    <glyph glyph-name="space" unicode=" " horiz-adv-x="496" 
 />
    <glyph glyph-name="exclam" unicode="!" horiz-adv-x="540" 
d="M405 390h-269v1101h269v-1101zM120 138q0 64 43.5 108t107 44t107.5 -44t44 -108t-44 -107t-108 -43t-107 43t-43 107z" />
    <glyph glyph-name="quotedbl" unicode="&#x22;" horiz-adv-x="685" 
d="M85 1093v398h200v-398h-200zM400 1093v398h201v-398h-201z" />
    <glyph glyph-name="numbersign" unicode="#" 
d="M138 0l86 372h-203l40 189h203l90 396h-203l45 187h202l77 347h208l-76 -347h196l77 347h209l-77 -347h202l-45 -187h-202l-89 -396h202l-41 -189h-202l-85 -372h-201l77 372h-195l-86 -372h-209zM669 561l89 396h-195l-90 -396h196z" />
    <glyph glyph-name="dollar" unicode="$" 
d="M874 0h-161v-213h-191v213h-373v234h373v405h-160q-128 0 -181 53.5t-53 181.5v382q0 128 53 181.5t181 53.5h160v213h191v-213h373v-235h-373v-382h161q127 0 180.5 -53.5t53.5 -181.5v-405q0 -128 -53 -181t-181 -53zM775 639h-62v-405h62q64 0 64 64v277q0 64 -64 64z
M396 1193v-256q0 -63 64 -63h62v382h-62q-64 0 -64 -63z" />
    <glyph glyph-name="percent" unicode="%" horiz-adv-x="1644" 
d="M384 0l677 1491h199l-677 -1491h-199zM106 1022v256q0 112 51 162.5t162 50.5h158q112 0 163 -50.5t51 -162.5v-256q0 -74 -22.5 -121t-69.5 -69.5t-122 -22.5h-158q-111 0 -162 51t-51 162zM443 1303h-89q-23 0 -33 -10t-10 -33v-221q0 -23 10 -33t33 -10h89q23 0 33 10
t10 33v221q0 23 -10 33t-33 10zM955 213v256q0 112 50 162t162 50h158q112 0 162.5 -50.5t50.5 -161.5v-256q0 -111 -51 -162t-162 -51h-158q-75 0 -121.5 22.5t-68.5 69t-22 121.5zM1291 494h-90q-22 0 -32 -10t-10 -33v-221q0 -23 10 -33t32 -10h90q22 0 32 10t10 33v221
q0 12 -2.5 20t-7.5 13t-13 7.5t-19 2.5z" />
    <glyph glyph-name="ampersand" unicode="&#x26;" horiz-adv-x="1277" 
d="M388 1193v-256q0 -63 65 -63h803v-235h-183v-405q0 -128 -53 -181t-181 -53h-485q-128 0 -181 53t-53 181v319q0 89 30.5 136.5t89.5 66.5q-59 19 -89.5 66.5t-30.5 136.5v297q0 128 53 181.5t181 53.5h719v-235h-622q-63 0 -63 -63zM451 234h291q63 0 63 64v341h-352
q-65 0 -65 -64v-277q0 -64 63 -64z" />
    <glyph glyph-name="quotesingle" unicode="'" horiz-adv-x="425" 
d="M106 1093v398h213v-398h-213z" />
    <glyph glyph-name="parenleft" unicode="(" horiz-adv-x="723" 
d="M268 1278l171 213h242l-297 -383q-17 -23 -24 -33t-13 -29.5t-6 -43.5v-939q0 -24 6 -43.5t13 -30t24 -32.5l297 -383h-242l-171 213q-8 10 -31.5 38.5t-31 38.5t-25 35t-23 41.5l-14.5 43.5t-12 56.5t-3 65.5v853q0 31 3 59t7 48.5t13.5 43t16.5 36t21.5 34t23 31
t27.5 33.5t28 34z" />
    <glyph glyph-name="parenright" unicode=")" horiz-adv-x="723" 
d="M456 -213l-171 -213h-242l298 383q17 22 23.5 32.5t13 30t6.5 43.5v939q0 24 -6.5 43.5t-13 29.5t-23.5 33l-298 383h242l171 -213q8 -10 31.5 -38.5t31 -38.5t24.5 -35t23 -41.5t15 -43.5t12 -56.5t3 -65.5v-853q0 -36 -3 -65.5t-12 -56.5t-15 -43.5t-23 -41.5
t-24.5 -35t-31 -38.5t-31.5 -38.5z" />
    <glyph glyph-name="asterisk" unicode="*" horiz-adv-x="1081" 
d="M419 526v322l-274 -163l-94 163l275 160l-275 161l94 160l274 -160v322h188v-322l277 160l94 -160l-277 -161l277 -160l-94 -163l-277 163v-322h-188z" />
    <glyph glyph-name="plus" unicode="+" 
d="M718 191h-200v376h-369v187h369v374h200v-374h368v-187h-368v-376z" />
    <glyph glyph-name="comma" unicode="," horiz-adv-x="518" 
d="M196 -213l-196 113l238 398l197 -111z" />
    <glyph glyph-name="hyphen" unicode="-" horiz-adv-x="809" 
d="M85 482v234h639v-234h-639z" />
    <glyph glyph-name="period" unicode="." horiz-adv-x="472" 
d="M85 138q0 64 43.5 108t107.5 44t108 -44t44 -108t-44 -107t-108 -43t-107.5 43t-43.5 107z" />
    <glyph glyph-name="slash" unicode="/" horiz-adv-x="996" 
d="M191 -512h-212l826 2089h213z" />
    <glyph glyph-name="zero" unicode="0" 
d="M362 1491h512q127 0 180.5 -53.5t53.5 -181.5v-1022q0 -128 -53 -181t-181 -53h-512q-128 0 -181 53t-53 181v1022q0 128 53 181.5t181 53.5zM775 1256h-315q-64 0 -64 -63v-895q0 -64 64 -64h315q64 0 64 64v895q0 63 -64 63z" />
    <glyph glyph-name="one" unicode="1" 
d="M128 1491h390q128 0 181 -53.5t53 -181.5v-1022h356v-234h-980v234h356v959q0 63 -65 63h-291v235z" />
    <glyph glyph-name="two" unicode="2" 
d="M149 1491h725q127 0 180.5 -53.5t53.5 -181.5v-382q0 -128 -53.5 -181.5t-180.5 -53.5h-414q-64 0 -64 -64v-341h690v-234h-958v639q0 128 53 181.5t181 53.5h413q64 0 64 63v256q0 63 -64 63h-626v235z" />
    <glyph glyph-name="three" unicode="3" 
d="M874 0h-746v234h647q64 0 64 64v277q0 64 -64 64h-370q-54 0 -90 9t-54 27t-24.5 38t-6.5 47q0 82 81 134l512 354v8h-695v235h779q41 0 74.5 -10.5t56.5 -29t39 -43t23.5 -51.5t7.5 -56q0 -77 -33.5 -126.5t-113.5 -105.5l-270 -187v-8h183q127 0 180.5 -53.5
t53.5 -181.5v-405q0 -128 -53 -181t-181 -53z" />
    <glyph glyph-name="four" unicode="4" 
d="M1108 0h-269v628h-477q-128 0 -181 53t-53 181v629h268v-564q0 -65 64 -65h379v629h269v-1491z" />
    <glyph glyph-name="five" unicode="5" 
d="M874 0h-746v234h647q64 0 64 64v277q0 64 -64 64h-413q-128 0 -181 53.5t-53 181.5v617h958v-235h-690v-319q0 -63 64 -63h414q127 0 180.5 -53.5t53.5 -181.5v-405q0 -128 -53 -181t-181 -53z" />
    <glyph glyph-name="six" unicode="6" 
d="M874 0h-512q-128 0 -181 53t-53 181v1022q0 128 53 181.5t181 53.5h703v-235h-605q-64 0 -64 -63v-319h478q127 0 180.5 -53.5t53.5 -181.5v-405q0 -128 -53 -181t-181 -53zM396 639v-341q0 -64 64 -64h315q64 0 64 64v277q0 64 -64 64h-379z" />
    <glyph glyph-name="seven" unicode="7" 
d="M160 0l657 1248v8h-711v235h844h34t34 -2.5t34.5 -6.5t29 -12.5t25.5 -20.5t15 -30.5t6 -42.5q0 -68 -61 -183l-605 -1193h-302z" />
    <glyph glyph-name="eight" unicode="8" 
d="M874 0h-512q-128 0 -181 53t-53 181v319q0 89 31 136.5t91 66.5q-30 9 -51.5 24.5t-37.5 39.5t-24.5 58.5t-8.5 80.5v297q0 128 53 181.5t181 53.5h512q127 0 180.5 -53.5t53.5 -181.5v-297q0 -89 -31.5 -136.5t-90.5 -66.5q39 -12 65 -35.5t41.5 -65.5t15.5 -102v-319
q0 -128 -53 -181t-181 -53zM460 234h315q64 0 64 64v277q0 64 -66 64h-311q-66 0 -66 -64v-277q0 -64 64 -64zM396 1193v-256q0 -63 66 -63h311q66 0 66 63v256q0 63 -64 63h-315q-64 0 -64 -63z" />
    <glyph glyph-name="nine" unicode="9" 
d="M362 1491h512q127 0 180.5 -53.5t53.5 -181.5v-1022q0 -128 -53 -181t-181 -53h-703v234h604q64 0 64 64v320h-477q-128 0 -181 53t-53 181v404q0 128 53 181.5t181 53.5zM839 852v341q0 63 -64 63h-315q-64 0 -64 -63v-277q0 -64 64 -64h379z" />
    <glyph glyph-name="colon" unicode=":" horiz-adv-x="472" 
d="M85 138q0 64 43.5 108t107.5 44t108 -44t44 -108t-44 -107t-108 -43t-107.5 43t-43.5 107zM85 927q0 64 43.5 107t107.5 43t108 -43.5t44 -106.5q0 -42 -20 -77t-55 -55t-77 -20q-64 0 -107.5 44t-43.5 108z" />
    <glyph glyph-name="semicolon" unicode=";" horiz-adv-x="518" 
d="M196 -213l-196 113l238 398l197 -111zM120 927q0 64 43 107t107 43t108 -43.5t44 -107t-44 -107.5t-108 -44q-31 0 -59 11.5t-48 32t-31.5 48.5t-11.5 60z" />
    <glyph glyph-name="less" unicode="&#x3c;" 
d="M1065 160l-894 389v217l894 395v-218l-703 -283l703 -284v-216z" />
    <glyph glyph-name="equal" unicode="=" 
d="M1086 366h-937v187h937v-187zM1086 742h-937v187h937v-187z" />
    <glyph glyph-name="greater" unicode="&#x3e;" 
d="M171 1161l894 -390v-218l-894 -393v216l703 284l-703 283v218z" />
    <glyph glyph-name="question" unicode="?" horiz-adv-x="974" 
d="M196 138q0 42 20 77t54.5 55t76.5 20q64 0 107.5 -44t43.5 -108t-43.5 -107t-107.5 -43t-107.5 43t-43.5 107zM21 1491h635q86 0 137 -23.5t74 -74t23 -137.5v-382q0 -128 -53 -181.5t-181 -53.5h-111q-63 0 -63 -64v-185h-269v249q0 128 53 181.5t181 53.5h111
q64 0 64 63v256q0 63 -64 63h-537v235z" />
    <glyph glyph-name="at" unicode="@" horiz-adv-x="2071" 
d="M1491 213h123q23 0 33 10t10 33v980q0 22 -10 32t-33 10h-1197q-23 0 -33 -10t-10 -32v-1404q0 -23 10 -33t33 -10h912v-213h-988q-111 0 -162 50.5t-51 162.5v1489q0 112 51 162.5t162 50.5h1350q112 0 162.5 -50.5t50.5 -162.5v-1065q0 -111 -50.5 -162t-162.5 -51
h-191q-43 0 -73.5 7t-50 22t-29.5 28.5t-22 36.5q-12 -23 -22 -36.5t-29.5 -28.5t-50 -22t-73.5 -7h-358q-111 0 -162 51t-51 162v639q0 111 51 162t162 51h444q111 0 162 -51t51 -162v-604q3 -35 42 -35zM1159 852h-290q-15 0 -24 -4.5t-13.5 -14t-4.5 -24.5v-553
q0 -23 10 -33t32 -10h290q22 0 32 10t10 33v553q0 15 -4.5 24.5t-13.5 14t-24 4.5z" />
    <glyph glyph-name="A" unicode="A" horiz-adv-x="1323" 
d="M0 0l426 1307q37 113 92 156t144 43q60 0 102.5 -17.5t77.5 -62t59 -119.5l424 -1307h-292l-119 390h-505l-117 -390h-292zM843 624l-178 581h-9l-177 -581h364z" />
    <glyph glyph-name="B" unicode="B" horiz-adv-x="1298" 
d="M950 0h-588q-128 0 -181 53t-53 181v1022q0 128 53 181.5t181 53.5h588q127 0 181 -53.5t54 -181.5v-297q0 -89 -31.5 -136.5t-90.5 -66.5q39 -12 65 -35.5t41.5 -65.5t15.5 -102v-319q0 -128 -53.5 -181t-181.5 -53zM460 234h392q64 0 64 64v277q0 64 -66 64h-454v-341
q0 -64 64 -64zM396 1193v-319h454q66 0 66 63v256q0 63 -64 63h-392q-64 0 -64 -63z" />
    <glyph glyph-name="C" unicode="C" horiz-adv-x="979" 
d="M362 1491h575v-235h-477q-64 0 -64 -63v-895q0 -64 64 -64h477v-234h-575q-128 0 -181 53t-53 181v1022q0 128 53 181.5t181 53.5z" />
    <glyph glyph-name="D" unicode="D" horiz-adv-x="1328" 
d="M149 1491h818q86 0 137 -24t74 -74.5t23 -136.5v-1022q0 -128 -53 -181t-181 -53h-818v1491zM869 1256h-452v-1022h452q64 0 64 64v895q0 63 -64 63z" />
    <glyph glyph-name="E" unicode="E" horiz-adv-x="1085" 
d="M362 1491h640v-235h-542q-64 0 -64 -63v-319h606v-235h-606v-341q0 -64 64 -64h542v-234h-640q-128 0 -181 53t-53 181v1022q0 128 53 181.5t181 53.5z" />
    <glyph glyph-name="F" unicode="F" horiz-adv-x="1008" 
d="M370 1491h597v-235h-498q-64 0 -64 -63v-319h562v-235h-562v-639h-269v1256q0 128 53 181.5t181 53.5z" />
    <glyph glyph-name="G" unicode="G" horiz-adv-x="1290" 
d="M950 0h-588q-128 0 -181 53t-53 181v1022q0 128 53 181.5t181 53.5h801v-235h-703q-64 0 -64 -63v-895q0 -64 64 -64h392q64 0 64 64v341h-256v235h525v-640q0 -128 -53.5 -181t-181.5 -53z" />
    <glyph glyph-name="H" unicode="H" horiz-adv-x="1333" 
d="M1185 1491v-1491h-269v639h-499v-639h-268v1491h268v-617h499v617h269z" />
    <glyph glyph-name="I" unicode="I" horiz-adv-x="565" 
d="M417 0h-268v1491h268v-1491z" />
    <glyph glyph-name="J" unicode="J" horiz-adv-x="902" 
d="M532 0h-532v234h435q63 0 63 64v1193h268v-1257q0 -128 -53 -181t-181 -53z" />
    <glyph glyph-name="K" unicode="K" horiz-adv-x="1277" 
d="M750 829h179q127 0 180.5 -53.5t53.5 -181.5v-594h-269v530q0 64 -63 64h-414v-594h-268v1491h268v-662h39l438 662h299z" />
    <glyph glyph-name="L" unicode="L" horiz-adv-x="988" 
d="M988 0h-618q-128 0 -181 53t-53 181v1257h269v-1193q0 -64 64 -64h519v-234z" />
    <glyph glyph-name="M" unicode="M" horiz-adv-x="1486" 
d="M1350 0h-268v1103h-9l-128 -381q-27 -84 -80.5 -124t-120.5 -40q-69 0 -123.5 40t-81.5 124l-126 379h-8v-1101h-269v1303q0 95 51.5 149t140.5 54q91 0 141.5 -36t83.5 -126l186 -511h9l187 511q23 60 51.5 95t69.5 51t103 16q88 0 139.5 -54t51.5 -149v-1303z" />
    <glyph glyph-name="N" unicode="N" horiz-adv-x="1345" 
d="M1210 1491v-1280q0 -107 -58 -166.5t-156 -59.5q-32 0 -58 4.5t-55 16.5t-52 37.5t-39 64.5l-387 1010h-9v-1118h-260v1293q0 43 10.5 77.5t25.5 56t37 37.5t41 24t41.5 12.5t34 5t23.5 0.5q38 0 64 -4t55.5 -15t51.5 -35.5t36 -63.5l385 -1016h9v1119h260z" />
    <glyph glyph-name="O" unicode="O" horiz-adv-x="1307" 
d="M362 1491h583q128 0 181.5 -53.5t53.5 -181.5v-1022q0 -86 -23.5 -137t-74 -74t-137.5 -23h-583q-128 0 -181 53t-53 181v1022q0 128 53 181.5t181 53.5zM848 1256h-388q-64 0 -64 -63v-895q0 -64 64 -64h388q64 0 64 64v895q0 63 -64 63z" />
    <glyph glyph-name="P" unicode="P" 
d="M370 1491h567q65 0 109 -12.5t72 -41t40.5 -72.5t12.5 -109v-455q0 -128 -53 -181t-181 -53h-532v-567h-269v1256q0 128 53 181.5t181 53.5zM839 1256h-370q-64 0 -64 -63v-392h434q64 0 64 63v329q0 63 -64 63z" />
    <glyph glyph-name="Q" unicode="Q" horiz-adv-x="1307" 
d="M362 1491h583q128 0 181.5 -53.5t53.5 -181.5v-1022q0 -86 -23.5 -137t-74 -74t-137.5 -23h-157v-298h-268v298h-158q-128 0 -181 53t-53 181v1022q0 128 53 181.5t181 53.5zM848 1256h-388q-64 0 -64 -63v-895q0 -64 64 -64h388q64 0 64 64v895q0 63 -64 63z" />
    <glyph glyph-name="R" unicode="R" horiz-adv-x="1311" 
d="M370 1491h567q65 0 109 -12.5t72 -41t40.5 -72.5t12.5 -109v-433q0 -87 -23 -137.5t-74 -74t-137 -23.5h-168l479 -588h-319l-471 588h-53v-588h-269v1256q0 128 53 181.5t181 53.5zM839 1256h-370q-64 0 -64 -63v-370h434q64 0 64 63v307q0 63 -64 63z" />
    <glyph glyph-name="S" unicode="S" horiz-adv-x="1128" 
d="M809 0h-703v234h605q64 0 64 64v277q0 64 -64 64h-392q-86 0 -136.5 23.5t-74 74t-23.5 137.5v382q0 128 53.5 181.5t180.5 53.5h703v-235h-605q-63 0 -63 -63v-256q0 -63 63 -63h392q128 0 181.5 -54t53.5 -181v-405q0 -128 -53.5 -181t-181.5 -53z" />
    <glyph glyph-name="T" unicode="T" horiz-adv-x="1085" 
d="M677 0h-268v1256h-409v235h1086v-235h-409v-1256z" />
    <glyph glyph-name="U" unicode="U" horiz-adv-x="1307" 
d="M937 0h-567q-128 0 -181 53t-53 181v1257h269v-1193q0 -64 64 -64h370q64 0 64 64v1193h268v-1257q0 -128 -53 -181t-181 -53z" />
    <glyph glyph-name="V" unicode="V" horiz-adv-x="1290" 
d="M290 1491l353 -1206h9l350 1206h289l-409 -1308q-35 -113 -90.5 -155.5t-145.5 -42.5q-91 0 -148 42.5t-91 155.5l-407 1308h290z" />
    <glyph glyph-name="W" unicode="W" horiz-adv-x="1843" 
d="M1474 0h-346q-85 0 -135 30.5t-71 77.5q-51 -108 -206 -108h-346q-128 0 -181 53t-53 181v1257h269v-1193q0 -64 64 -64h255q64 0 64 64v1193h269v-1193q0 -64 63 -64h256q63 0 63 64v1193h269v-1257q0 -128 -53 -181t-181 -53z" />
    <glyph glyph-name="X" unicode="X" horiz-adv-x="1230" 
d="M1231 0h-311l-304 553l-305 -553h-311l464 756l-449 735h306l295 -536l293 536h307l-450 -735z" />
    <glyph glyph-name="Y" unicode="Y" horiz-adv-x="1230" 
d="M899 622h-149v-622h-268v622h-150q-128 0 -181 53t-53 181v635h268v-571q0 -64 65 -64h370q63 0 63 64v571h270v-635q0 -128 -53.5 -181t-181.5 -53z" />
    <glyph glyph-name="Z" unicode="Z" horiz-adv-x="1085" 
d="M1022 0h-821q-84 0 -121 22.5t-37 85.5q0 25 7.5 53t22.5 59t25 48.5t28 46.5l577 933v8h-654v235h813h43t37.5 -2t34.5 -6t27 -11t22.5 -17.5t12.5 -27t5 -37.5q0 -82 -83 -215l-577 -933v-8h638v-234z" />
    <glyph glyph-name="bracketleft" unicode="[" horiz-adv-x="702" 
d="M341 1303v-1541h298v-188h-511v1917h511v-188h-298z" />
    <glyph glyph-name="backslash" unicode="\" horiz-adv-x="996" 
d="M1018 -512h-213l-826 2089h212z" />
    <glyph glyph-name="bracketright" unicode="]" horiz-adv-x="702" 
d="M362 -238v1541h-299v188h512v-1917h-512v188h299z" />
    <glyph glyph-name="asciicircum" unicode="^" horiz-adv-x="979" 
d="M815 1193l-321 287h-8l-322 -287l-121 142l333 293q51 46 114 46q22 0 44.5 -8t34 -16t29.5 -22l339 -293z" />
    <glyph glyph-name="underscore" unicode="_" 
d="M85 0v213h1065v-213h-1065z" />
    <glyph glyph-name="grave" unicode="`" horiz-adv-x="894" 
d="M396 1606l260 -322l-156 -115l-262 320z" />
    <glyph glyph-name="a" unicode="a" horiz-adv-x="1034" 
d="M77 213v234q0 112 51 162.5t162 50.5h401v149q0 23 -10 33t-33 10h-520v213h596q111 0 162 -51t51 -162v-639q0 -111 -51 -162t-162 -51h-434q-111 0 -162 51t-51 162zM691 256v191h-325q-23 0 -33 -10t-10 -32v-149q0 -23 10 -33t33 -10h282q23 0 33 10t10 33z" />
    <glyph glyph-name="b" unicode="b" horiz-adv-x="1085" 
d="M354 1491v-426h421q111 0 162 -51t51 -162v-639q0 -111 -51 -162t-162 -51h-456q-74 0 -121 22.5t-69.5 69t-22.5 121.5v1278h248zM396 213h303q23 0 33 10t10 33v553q0 23 -10 33t-33 10h-345v-596q0 -23 10 -33t32 -10z" />
    <glyph glyph-name="c" unicode="c" horiz-adv-x="864" 
d="M98 213v639q0 111 50.5 162t162.5 51h512v-213h-435q-23 0 -33 -10t-10 -33v-553q0 -23 10 -33t33 -10h435v-213h-512q-112 0 -162.5 51t-50.5 162z" />
    <glyph glyph-name="d" unicode="d" horiz-adv-x="1085" 
d="M733 1065v426h247v-1278q0 -111 -51 -162t-163 -51h-455q-112 0 -162.5 51t-50.5 162v639q0 111 50.5 162t162.5 51h422zM388 213h303q15 0 24 4.5t13.5 14t4.5 24.5v596h-345q-23 0 -33 -10t-10 -33v-553q0 -23 10 -33t33 -10z" />
    <glyph glyph-name="e" unicode="e" horiz-adv-x="1034" 
d="M959 852v-226q0 -56 -12.5 -96t-38.5 -66t-66 -38.5t-96 -12.5h-401v-157q0 -23 10 -33t33 -10h541v-213h-618q-112 0 -162.5 51t-50.5 162v639q0 111 50.5 162t162.5 51h435q111 0 162 -51t51 -162zM345 809v-183h324q15 0 24.5 4.5t13.5 14t4 24.5v140q0 15 -4 24.5
t-13.5 14t-24.5 4.5h-281q-23 0 -33 -10t-10 -33z" />
    <glyph glyph-name="f" unicode="f" horiz-adv-x="697" 
d="M354 852v-852h-248v1278q0 112 51 162.5t162 50.5h358v-213h-281q-22 0 -32 -10t-10 -32v-171h323v-213h-323z" />
    <glyph glyph-name="g" unicode="g" horiz-adv-x="1085" 
d="M980 852v-1065q0 -75 -22.5 -122t-69.5 -69t-122 -22h-638v213h563q22 0 32 10t10 32v171h-422q-112 0 -162.5 51t-50.5 162v639q0 111 50.5 162t162.5 51h455q112 0 163 -51t51 -162zM691 852h-303q-23 0 -33 -10t-10 -33v-553q0 -23 10 -33t33 -10h345v596
q0 15 -4.5 24.5t-13.5 14t-24 4.5z" />
    <glyph glyph-name="h" unicode="h" horiz-adv-x="1064" 
d="M354 1491v-426h400q112 0 162.5 -51t50.5 -162v-852h-247v809q0 23 -10 33t-33 10h-323v-852h-248v1491h248z" />
    <glyph glyph-name="i" unicode="i" horiz-adv-x="459" 
d="M106 0v1065h248v-1065h-248zM96 1357q0 56 39 95t95 39t95 -39t39 -95t-39 -95t-95 -39t-95 39t-39 95z" />
    <glyph glyph-name="j" unicode="j" horiz-adv-x="538" 
d="M175 1357q0 56 39 95t95 39t95 -39t39 -95t-39 -95t-95 -39t-95 39t-39 95zM185 -171v1236h248v-1278q0 -75 -22.5 -122t-69.5 -69t-122 -22h-347v213h270q23 0 33 10t10 32z" />
    <glyph glyph-name="k" unicode="k" horiz-adv-x="1051" 
d="M716 0v407q0 22 -10.5 32t-32.5 10h-319v-449h-248v1491h248v-829h30l319 403h273l-328 -403h102q111 0 162 -50.5t51 -162.5v-449h-247z" />
    <glyph glyph-name="l" unicode="l" horiz-adv-x="459" 
d="M106 0v1491h248v-1491h-248z" />
    <glyph glyph-name="m" unicode="m" horiz-adv-x="1601" 
d="M1214 852h-247q-22 0 -32 -10t-10 -33v-809h-248v809q0 23 -10 33t-33 10h-246q-23 0 -33 -10t-10 -33v-809h-247v852q0 111 50.5 162t162.5 51h315q137 0 175 -100q34 100 175 100h315q111 0 162 -51t51 -162v-852h-248v809q0 15 -4 24.5t-13.5 14t-24.5 4.5z" />
    <glyph glyph-name="n" unicode="n" horiz-adv-x="1055" 
d="M669 852h-281q-23 0 -33 -10t-10 -33v-809h-247v852q0 111 50.5 162t162.5 51h435q111 0 162 -51t51 -162v-852h-248v809q0 15 -4 24.5t-13.5 14t-24.5 4.5z" />
    <glyph glyph-name="o" unicode="o" horiz-adv-x="1077" 
d="M98 213v639q0 111 50.5 162t162.5 51h455q112 0 163 -51t51 -162v-639q0 -111 -51 -162t-163 -51h-455q-112 0 -162.5 51t-50.5 162zM691 852h-303q-23 0 -33 -10t-10 -33v-553q0 -23 10 -33t33 -10h303q15 0 24 4.5t13.5 14t4.5 24.5v553q0 15 -4.5 24.5t-13.5 14
t-24 4.5z" />
    <glyph glyph-name="p" unicode="p" horiz-adv-x="1085" 
d="M354 0v-426h-248v1278q0 111 51 162t162 51h456q113 0 163 -50.5t50 -162.5v-639q0 -112 -50 -162.5t-163 -50.5h-421zM699 852h-303q-22 0 -32 -10t-10 -33v-596h345q23 0 33 10t10 33v553q0 23 -10 33t-33 10z" />
    <glyph glyph-name="q" unicode="q" horiz-adv-x="1085" 
d="M733 -426v426h-422q-112 0 -162.5 51t-50.5 162v639q0 111 50.5 162t162.5 51h455q112 0 163 -51t51 -162v-1278h-247zM691 852h-303q-23 0 -33 -10t-10 -33v-553q0 -23 10 -33t33 -10h345v596q0 15 -4.5 24.5t-13.5 14t-24 4.5z" />
    <glyph glyph-name="r" unicode="r" horiz-adv-x="702" 
d="M345 809v-809h-247v852q0 111 50.5 162t162.5 51h370v-213h-293q-23 0 -33 -10t-10 -33z" />
    <glyph glyph-name="s" unicode="s" horiz-adv-x="957" 
d="M894 433v-220q0 -111 -50.5 -162t-162.5 -51h-596v213h520q23 0 33 10t10 33v134q0 23 -10 33t-33 10h-328q-112 0 -163 50.5t-51 162.5v206q0 111 51 162t163 51h597v-213h-520q-16 0 -25 -4.5t-13.5 -14t-4.5 -24.5v-121q0 -22 10 -32t33 -10h327q112 0 162.5 -51
t50.5 -162z" />
    <glyph glyph-name="t" unicode="t" horiz-adv-x="697" 
d="M354 1363v-298h323v-213h-323v-596q0 -23 10 -33t32 -10h281v-213h-358q-74 0 -121 22.5t-69.5 69t-22.5 121.5v1150h248z" />
    <glyph glyph-name="u" unicode="u" horiz-adv-x="1055" 
d="M388 213h281q15 0 24.5 4.5t13.5 14t4 24.5v809h248v-852q0 -111 -51 -162t-162 -51h-435q-112 0 -162.5 51t-50.5 162v852h247v-809q0 -23 10 -33t33 -10z" />
    <glyph glyph-name="v" unicode="v" horiz-adv-x="1034" 
d="M256 1065l258 -790h8l258 790h255l-322 -935q-28 -80 -77.5 -111t-117.5 -31q-33 0 -59.5 6t-52.5 21t-47 44t-36 71l-323 935h256z" />
    <glyph glyph-name="w" unicode="w" horiz-adv-x="1601" 
d="M388 213h246q23 0 33 10t10 33v809h248v-809q0 -23 10 -33t32 -10h247q22 0 32 10t10 33v809h248v-852q0 -111 -51 -162t-162 -51h-315q-138 0 -175 100q-35 -100 -175 -100h-315q-112 0 -162.5 51t-50.5 162v852h247v-809q0 -23 10 -33t33 -10z" />
    <glyph glyph-name="x" unicode="x" horiz-adv-x="992" 
d="M1014 0h-288l-230 356l-230 -356h-287l377 547l-360 518h283l217 -330l217 330h281l-355 -520z" />
    <glyph glyph-name="y" unicode="y" horiz-adv-x="1064" 
d="M345 1065v-809q0 -23 10 -33t33 -10h323v852h248v-1278q0 -56 -12.5 -96t-38.5 -66.5t-66 -38.5t-96 -12h-618v213h541q22 0 32 10t10 32v171h-400q-112 0 -162.5 51t-50.5 162v852h247z" />
    <glyph glyph-name="z" unicode="z" horiz-adv-x="927" 
d="M886 0h-675q-168 0 -168 120q0 24 5 47t10.5 38.5t19.5 36.5t21 30t25.5 31t24.5 29l422 511v9h-500v213h638q171 0 171 -120q0 -29 -6 -53.5t-21 -49.5t-25.5 -39.5t-32.5 -42.5l-448 -538v-9h539v-213z" />
    <glyph glyph-name="braceleft" unicode="{" horiz-adv-x="809" 
d="M256 681v597q0 112 51 162.5t162 50.5h297v-188h-254q-23 0 -33 -10t-10 -33v-553q0 -72 -28 -114t-85 -61q57 -19 85 -60.5t28 -113.5v-554q0 -22 10 -32t33 -10h254v-188h-297q-111 0 -162 50.5t-51 162.5v597q0 22 -10 32t-33 10h-170v213h170q23 0 33 10t10 32z" />
    <glyph glyph-name="bar" unicode="|" horiz-adv-x="425" 
d="M106 -509v2086h213v-2086h-213z" />
    <glyph glyph-name="braceright" unicode="}" horiz-adv-x="809" 
d="M553 384v-597q0 -112 -50 -162.5t-162 -50.5h-298v188h255q16 0 25 4.5t13.5 13.5t4.5 24v554q0 72 27.5 114t84.5 60q-57 20 -84.5 61.5t-27.5 113.5v553q0 23 -10 33t-33 10h-255v188h298q75 0 121.5 -22.5t68.5 -69t22 -121.5v-597q0 -22 10 -32t33 -10h170v-213h-170
q-15 0 -24.5 -4t-14 -13.5t-4.5 -24.5z" />
    <glyph glyph-name="asciitilde" unicode="~" 
d="M894 506h-170q-65 0 -112 20t-73.5 62t-26.5 105v8q0 23 -10 33t-33 10h-85q-23 0 -33 -10t-10 -33v-173h-213v250q0 93 56.5 139t156.5 46h171q65 0 111.5 -19t73.5 -61.5t27 -104.5v-9q0 -23 10 -33t32 -10h86q22 0 32 10t10 33v172h214v-248q0 -93 -57 -140t-157 -47z
" />
    <glyph glyph-name="uni00A0" unicode="&#xa0;" horiz-adv-x="496" 
 />
    <glyph glyph-name="cent" unicode="&#xa2;" 
d="M256 213v639q0 111 51 162t162 51h200v213h191v-213h162v-213h-162v-639h162v-213h-162v-213h-191v213h-200q-111 0 -162 51t-51 162zM502 809v-553q0 -23 10 -33t33 -10h124v639h-124q-23 0 -33 -10t-10 -33z" />
    <glyph glyph-name="sterling" unicode="&#xa3;" 
d="M469 1491h438v-235h-340q-65 0 -65 -63v-128h405v-187h-405v-580q0 -64 65 -64h583v-234h-681q-128 0 -181.5 53t-53.5 181v644h-191v187h191v191q0 128 53.5 181.5t181.5 53.5z" />
    <glyph glyph-name="yen" unicode="&#xa5;" horiz-adv-x="1149" 
d="M1008 545h-299v-126h299v-187h-299v-232h-268v232h-299v187h299v126h-299v188h216l-358 758h290l281 -662h8l281 662h290l-358 -758h216v-188z" />
    <glyph glyph-name="dieresis" unicode="&#xa8;" horiz-adv-x="894" 
d="M118 1357q0 56 39 95t95 39t95 -39t39 -95t-39 -95t-95 -39t-95 39t-39 95zM509 1357q0 56 39 95t95 39t95.5 -39t39.5 -95q0 -37 -18 -67.5t-49 -48.5t-68 -18q-56 0 -95 39t-39 95z" />
    <glyph glyph-name="copyright" unicode="&#xa9;" horiz-adv-x="1660" 
d="M601 605v298q0 75 22 121.5t69 69t121 22.5h264v-191h-221q-23 0 -33 -10t-10 -33v-256q0 -23 10 -33t33 -10h221v-191h-264q-111 0 -161.5 51t-50.5 162zM128 213v1065q0 112 51 162.5t162 50.5h980q111 0 162 -50.5t51 -162.5v-1065q0 -111 -51 -162t-162 -51h-980
q-111 0 -162 51t-51 162zM1278 1299h-894q-23 0 -33 -10t-10 -33v-1022q0 -23 10 -33t33 -10h894q23 0 33 10t10 33v1022q0 23 -10 33t-33 10z" />
    <glyph glyph-name="guillemotleft" unicode="&#xab;" horiz-adv-x="1038" 
d="M616 980l-288 -392l288 -392l-173 -113l-358 505l358 505zM955 864l-207 -276l207 -277l-171 -115l-286 392l286 392z" />
    <glyph glyph-name="uni00AD" unicode="&#xad;" horiz-adv-x="809" 
d="M85 482v234h639v-234h-639z" />
    <glyph glyph-name="registered" unicode="&#xae;" horiz-adv-x="1660" 
d="M128 213v1065q0 112 51 162.5t162 50.5h980q111 0 162 -50.5t51 -162.5v-1065q0 -111 -51 -162t-162 -51h-980q-111 0 -162 51t-51 162zM1278 1299h-894q-23 0 -33 -10t-10 -33v-1022q0 -23 10 -33t33 -10h894q23 0 33 10t10 33v1022q0 23 -10 33t-33 10zM728 1116h243
q89 0 126 -43.5t37 -127.5v-136q0 -143 -118 -161l143 -256h-241l-126 247h-26v-247h-213v553q0 171 175 171zM888 945h-89q-33 0 -33 -31v-105h122q32 0 32 30v75q0 31 -32 31z" />
    <glyph glyph-name="acute" unicode="&#xb4;" horiz-adv-x="894" 
d="M238 1284l260 322l158 -117l-262 -320z" />
    <glyph glyph-name="cedilla" unicode="&#xb8;" horiz-adv-x="894" 
d="M639 -256q0 -63 -20 -101t-55.5 -53.5t-90.5 -15.5h-217v128h163q25 0 37.5 9.5t12.5 34.5q0 23 -12.5 32t-37.5 9q-26 0 -47 6.5t-40 22.5t-29.5 48t-10.5 79v57h149v-55q0 -11 4 -17.5t13 -9.5t24 -3q83 0 120 -36.5t37 -134.5z" />
    <glyph glyph-name="guillemotright" unicode="&#xbb;" horiz-adv-x="1038" 
d="M424 196l287 392l-287 392l172 113l359 -505l-359 -505zM85 311l207 277l-207 276l171 116l285 -392l-285 -392z" />
    <glyph glyph-name="circumflex" unicode="&#x2c6;" horiz-adv-x="894" 
d="M701 1171l-250 237h-8l-250 -237l-130 144l272 248q51 47 112 47q59 0 109 -47l275 -248z" />
    <glyph glyph-name="ring" unicode="&#x2da;" horiz-adv-x="894" 
d="M160 1423v158q0 112 45.5 160t156.5 48h170q75 0 119.5 -21.5t64 -66.5t19.5 -120v-158q0 -113 -46 -161t-157 -48h-170q-111 0 -156.5 48t-45.5 161zM500 1610h-106q-22 0 -32 -10t-10 -33v-132q0 -22 10 -32t32 -10h106q15 0 24.5 4t14 13.5t4.5 24.5v132q0 23 -10 33
t-33 10z" />
    <glyph glyph-name="tilde" unicode="&#x2dc;" horiz-adv-x="894" 
d="M641 1214h-94q-34 0 -64 8t-56 24.5t-41.5 45.5t-15.5 67v9q0 23 -11.5 38t-26 20t-31.5 5q-28 0 -48.5 -14.5t-20.5 -48.5v-135h-179v190q0 45 19 79t50 52t64 26.5t68 8.5h93q34 0 64.5 -8t57 -24t42 -45t15.5 -67v-10q0 -24 11.5 -39t25.5 -19.5t31 -4.5q28 0 48 14.5
t20 48.5v134h179v-189q0 -45 -18.5 -79t-49.5 -52t-64.5 -26.5t-67.5 -8.5z" />
    <glyph glyph-name="afii10023" unicode="&#x401;" horiz-adv-x="1085" 
d="M362 1491h640v-235h-542q-64 0 -64 -63v-319h606v-235h-606v-341q0 -64 64 -64h542v-234h-640q-128 0 -181 53t-53 181v1022q0 128 53 181.5t181 53.5zM281 1738q0 29 11 55t30 44.5t45 29.5t55 11q60 0 100.5 -40.5t40.5 -99.5t-40.5 -100t-100 -41t-100.5 41t-41 100z
M703 1738q0 59 40.5 99.5t100 40.5t100 -40.5t40.5 -99.5t-40.5 -100t-100 -41t-100 41t-40.5 100z" />
    <glyph glyph-name="afii10051" unicode="&#x402;" horiz-adv-x="1477" 
d="M1180 0h-341v234h243q64 0 64 64v277q0 64 -64 64h-430v-639h-268v1256h-384v235h1138v-235h-486v-382h528q87 0 137.5 -23.5t73.5 -74.5t23 -137v-405q0 -128 -53 -181t-181 -53z" />
    <glyph glyph-name="afii10052" unicode="&#x403;" horiz-adv-x="988" 
d="M370 1491h618v-235h-519q-64 0 -64 -63v-1193h-269v1256q0 128 53 181.5t181 53.5zM660 2020l143 -150l-301 -293l-144 146z" />
    <glyph glyph-name="afii10053" unicode="&#x404;" horiz-adv-x="1124" 
d="M605 1491h434v-235h-379q-31 0 -49.5 -16t-35.5 -47l-170 -319h634v-235h-634l170 -341q14 -31 33.5 -47.5t51.5 -16.5h379v-234h-434q-33 0 -61 4t-51.5 13.5t-42 19.5t-36 28.5t-30 33t-27.5 41t-24.5 44.5t-25.5 50l-179 362q-43 88 -43 160.5t43 159.5l179 340
q1 3 5 10l22.5 42t21.5 38t23.5 36t25 30.5t29 27.5t33 21t39.5 17.5t45.5 9t53.5 3.5z" />
    <glyph glyph-name="afii10054" unicode="&#x405;" horiz-adv-x="1128" 
d="M809 0h-703v234h605q64 0 64 64v277q0 64 -64 64h-392q-86 0 -136.5 23.5t-74 74t-23.5 137.5v382q0 128 53.5 181.5t180.5 53.5h703v-235h-605q-63 0 -63 -63v-256q0 -63 63 -63h392q128 0 181.5 -54t53.5 -181v-405q0 -128 -53.5 -181t-181.5 -53z" />
    <glyph glyph-name="afii10055" unicode="&#x406;" horiz-adv-x="523" 
d="M396 0h-268v1491h268v-1491z" />
    <glyph glyph-name="afii10056" unicode="&#x407;" horiz-adv-x="523" 
d="M396 0h-268v1491h268v-1491zM-63 1738q0 59 40.5 99.5t99.5 40.5t99.5 -40.5t40.5 -99.5t-40.5 -100t-99.5 -41t-99.5 41t-40.5 100zM307 1738q0 59 40.5 99.5t99.5 40.5t100 -40.5t41 -99.5t-41 -100t-100 -41q-39 0 -71 18.5t-50.5 51t-18.5 71.5z" />
    <glyph glyph-name="afii10057" unicode="&#x408;" horiz-adv-x="902" 
d="M532 0h-532v234h435q63 0 63 64v1193h268v-1257q0 -128 -53 -181t-181 -53z" />
    <glyph glyph-name="afii10058" unicode="&#x409;" horiz-adv-x="2039" 
d="M1742 0h-545q-128 0 -181 53t-53 181v1012h-8l-654 -1246h-322l739 1355q30 49 63.5 80.5t71 46.5t72 20.5t81.5 5.5q109 0 167 -52.5t58 -177.5v-375h511q128 0 181.5 -53.5t53.5 -180.5v-435q0 -86 -23.5 -137t-74.5 -74t-137 -23zM1295 234h349q64 0 64 64v307
q0 64 -64 64h-413v-371q0 -64 64 -64z" />
    <glyph glyph-name="afii10059" unicode="&#x40a;" horiz-adv-x="1971" 
d="M1674 0h-546q-128 0 -181 53t-53 181v420h-477v-654h-268v1491h268v-603h477v603h269v-603h511q128 0 181 -53t53 -181v-420q0 -128 -53 -181t-181 -53zM1227 234h350q63 0 63 64v292q0 64 -63 64h-414v-356q0 -64 64 -64z" />
    <glyph glyph-name="afii10060" unicode="&#x40b;" horiz-adv-x="1477" 
d="M0 1491h1138v-235h-486v-382h507q64 0 108 -13t72.5 -41.5t41 -72.5t12.5 -108v-639h-269v575q0 64 -63 64h-409v-639h-268v1256h-384v235z" />
    <glyph glyph-name="afii10061" unicode="&#x40c;" horiz-adv-x="1298" 
d="M750 829h179q127 0 180.5 -53.5t53.5 -181.5v-594h-269v530q0 64 -63 64h-414v-594h-268v1491h268v-662h39l438 662h299zM773 2020l143 -150l-300 -293l-145 146z" />
    <glyph glyph-name="afii10062" unicode="&#x40e;" 
d="M1099 1491v-1265q0 -121 -52 -173.5t-173 -52.5h-750v234h707v369h-499q-121 0 -173.5 53.5t-52.5 172.5v662h268v-654h457v654h268zM573 1798h175q23 0 32.5 9.5t9.5 32.5v50h222v-79q0 -112 -51 -163t-162 -51h-277q-111 0 -162 51t-51 163v79h221v-50q0 -15 4.5 -24.5
t14 -13.5t24.5 -4z" />
    <glyph glyph-name="afii10145" unicode="&#x40f;" horiz-adv-x="1307" 
d="M937 0h-149v-298h-268v298h-150q-128 0 -181 53t-53 181v1257h269v-1193q0 -64 64 -64h370q64 0 64 64v1193h268v-1257q0 -128 -53 -181t-181 -53z" />
    <glyph glyph-name="afii10017" unicode="&#x410;" horiz-adv-x="1323" 
d="M0 0l426 1307q37 113 92 156t144 43q60 0 102.5 -17.5t77.5 -62t59 -119.5l424 -1307h-292l-119 390h-505l-117 -390h-292zM843 624l-178 581h-9l-177 -581h364z" />
    <glyph glyph-name="afii10018" unicode="&#x411;" horiz-adv-x="1260" 
d="M929 0h-567q-128 0 -181 53t-53 181v1022q0 128 53 181.5t181 53.5h746v-235h-648q-64 0 -64 -63v-319h533q127 0 180.5 -53.5t53.5 -181.5v-405q0 -128 -53 -181t-181 -53zM396 639v-341q0 -64 64 -64h371q63 0 63 64v277q0 64 -63 64h-435z" />
    <glyph glyph-name="afii10019" unicode="&#x412;" horiz-adv-x="1298" 
d="M950 0h-588q-128 0 -181 53t-53 181v1022q0 128 53 181.5t181 53.5h588q127 0 181 -53.5t54 -181.5v-297q0 -89 -31.5 -136.5t-90.5 -66.5q39 -12 65 -35.5t41.5 -65.5t15.5 -102v-319q0 -128 -53.5 -181t-181.5 -53zM460 234h392q64 0 64 64v277q0 64 -66 64h-454v-341
q0 -64 64 -64zM396 1193v-319h454q66 0 66 63v256q0 63 -64 63h-392q-64 0 -64 -63z" />
    <glyph glyph-name="afii10020" unicode="&#x413;" horiz-adv-x="988" 
d="M370 1491h618v-235h-519q-64 0 -64 -63v-1193h-269v1256q0 128 53 181.5t181 53.5z" />
    <glyph glyph-name="afii10021" unicode="&#x414;" horiz-adv-x="1583" 
d="M1317 0h-1049v-298h-247v532h150l387 1081q38 106 94.5 148.5t139.5 42.5q82 0 138.5 -42.5t93.5 -148.5l390 -1081h149v-532h-246v298zM1124 234l-327 965h-9l-328 -965h664z" />
    <glyph glyph-name="afii10022" unicode="&#x415;" horiz-adv-x="1085" 
d="M362 1491h640v-235h-542q-64 0 -64 -63v-319h606v-235h-606v-341q0 -64 64 -64h542v-234h-640q-128 0 -181 53t-53 181v1022q0 128 53 181.5t181 53.5z" />
    <glyph glyph-name="afii10024" unicode="&#x416;" horiz-adv-x="1724" 
d="M1376 594h-380v-594h-268v594h-379v-594h-268v603q0 118 53.5 173t172.5 55h121l-365 660h291l351 -660h23v660h268v-660h24l352 660h289l-364 -660h122q119 0 172 -55t53 -173v-603h-268v594z" />
    <glyph glyph-name="afii10025" unicode="&#x417;" horiz-adv-x="1043" 
d="M652 242l-317 384q-21 25 -31.5 39.5t-21 39t-10.5 49.5q0 15 4 29.5t9 25.5t14.5 24.5t17.5 23t20 23.5l313 368v8h-607v235h764q100 0 147.5 -29.5t47.5 -95.5q0 -31 -7.5 -58t-23.5 -54t-29 -44.5t-37 -46.5l-334 -405v-8l343 -431q45 -55 66.5 -97.5t21.5 -95.5
q0 -68 -47 -97t-148 -29h-764v234h609v8z" />
    <glyph glyph-name="afii10026" unicode="&#x418;" horiz-adv-x="1345" 
d="M136 189v1302h269v-1119h8l365 974q61 160 240 160q13 0 22 -0.5t25 -2.5t28.5 -5t28 -10t27 -16.5t23.5 -24t20 -33t13 -44t5 -55.5v-1315h-269v1118h-8l-366 -967q-32 -85 -96.5 -125.5t-142.5 -40.5q-93 0 -142.5 55t-49.5 149z" />
    <glyph glyph-name="afii10027" unicode="&#x419;" horiz-adv-x="1345" 
d="M136 189v1302h269v-1119h8l365 974q61 160 240 160q13 0 22 -0.5t25 -2.5t28.5 -5t28 -10t27 -16.5t23.5 -24t20 -33t13 -44t5 -55.5v-1315h-269v1118h-8l-366 -967q-32 -85 -96.5 -125.5t-142.5 -40.5q-93 0 -142.5 55t-49.5 149zM628 1798h175q9 0 16 1.5t12 4.5t8 8
t5 12t2 16v50h221v-79q0 -112 -51 -163t-162 -51h-277q-111 0 -162 51t-51 163v79h222v-50q0 -23 9.5 -32.5t32.5 -9.5z" />
    <glyph glyph-name="afii10028" unicode="&#x41a;" horiz-adv-x="1298" 
d="M750 829h179q127 0 180.5 -53.5t53.5 -181.5v-594h-269v530q0 64 -63 64h-414v-594h-268v1491h268v-662h39l438 662h299z" />
    <glyph glyph-name="afii10029" unicode="&#x41b;" horiz-adv-x="1290" 
d="M1002 0l-354 1205h-9l-349 -1205h-290l409 1307q35 113 90.5 156t146.5 43q45 0 78.5 -9t64 -31t54 -61t41.5 -98l407 -1307h-289z" />
    <glyph glyph-name="afii10030" unicode="&#x41c;" horiz-adv-x="1486" 
d="M1350 0h-268v1103h-9l-128 -381q-27 -84 -80.5 -124t-120.5 -40q-69 0 -123.5 40t-81.5 124l-126 379h-8v-1101h-269v1303q0 95 51.5 149t140.5 54q91 0 141.5 -36t83.5 -126l186 -511h9l187 511q23 60 51.5 95t69.5 51t103 16q88 0 139.5 -54t51.5 -149v-1303z" />
    <glyph glyph-name="afii10031" unicode="&#x41d;" horiz-adv-x="1333" 
d="M1185 1491v-1491h-269v639h-499v-639h-268v1491h268v-617h499v617h269z" />
    <glyph glyph-name="afii10032" unicode="&#x41e;" horiz-adv-x="1307" 
d="M362 1491h583q128 0 181.5 -53.5t53.5 -181.5v-1022q0 -86 -23.5 -137t-74 -74t-137.5 -23h-583q-128 0 -181 53t-53 181v1022q0 128 53 181.5t181 53.5zM848 1256h-388q-64 0 -64 -63v-895q0 -64 64 -64h388q64 0 64 64v895q0 63 -64 63z" />
    <glyph glyph-name="afii10033" unicode="&#x41f;" horiz-adv-x="1307" 
d="M370 1491h567q65 0 109 -12.5t72 -41t40.5 -72.5t12.5 -109v-1256h-268v1193q0 63 -64 63h-370q-64 0 -64 -63v-1193h-269v1256q0 128 53 181.5t181 53.5z" />
    <glyph glyph-name="afii10034" unicode="&#x420;" 
d="M370 1491h567q65 0 109 -12.5t72 -41t40.5 -72.5t12.5 -109v-455q0 -128 -53 -181t-181 -53h-532v-567h-269v1256q0 128 53 181.5t181 53.5zM839 1256h-370q-64 0 -64 -63v-392h434q64 0 64 63v329q0 63 -64 63z" />
    <glyph glyph-name="afii10035" unicode="&#x421;" horiz-adv-x="979" 
d="M362 1491h575v-235h-477q-64 0 -64 -63v-895q0 -64 64 -64h477v-234h-575q-128 0 -181 53t-53 181v1022q0 128 53 181.5t181 53.5z" />
    <glyph glyph-name="afii10036" unicode="&#x422;" horiz-adv-x="1085" 
d="M677 0h-268v1256h-409v235h1086v-235h-409v-1256z" />
    <glyph glyph-name="afii10037" unicode="&#x423;" 
d="M1099 1491v-1265q0 -121 -52 -173.5t-173 -52.5h-750v234h707v369h-499q-121 0 -173.5 53.5t-52.5 172.5v662h268v-654h457v654h268z" />
    <glyph glyph-name="afii10038" unicode="&#x424;" horiz-adv-x="1720" 
d="M341 1372h385v119h268v-119h386q128 0 181 -53t53 -181v-766q0 -128 -53 -181t-181 -53h-386v-138h-268v138h-385q-128 0 -181.5 53.5t-53.5 180.5v766q0 128 53.5 181t181.5 53zM1282 1138h-288v-766h288q64 0 64 65v636q0 65 -64 65zM374 1073v-636q0 -65 65 -65h287
v766h-287q-65 0 -65 -65z" />
    <glyph glyph-name="afii10039" unicode="&#x425;" horiz-adv-x="1230" 
d="M1231 0h-311l-304 553l-305 -553h-311l464 756l-449 735h306l295 -536l293 536h307l-450 -735z" />
    <glyph glyph-name="afii10040" unicode="&#x426;" horiz-adv-x="1384" 
d="M1116 0h-746q-128 0 -181 53t-53 181v1257h269v-1193q0 -64 64 -64h434v1257h268v-1257h192v-532h-247v298z" />
    <glyph glyph-name="afii10041" unicode="&#x427;" horiz-adv-x="1230" 
d="M1082 0h-269v605h-494q-128 0 -181 53t-53 181v652h269v-588q0 -64 63 -64h396v652h269v-1491z" />
    <glyph glyph-name="afii10042" unicode="&#x428;" horiz-adv-x="1843" 
d="M1474 0h-1104q-128 0 -181 53t-53 181v1257h269v-1193q0 -64 64 -64h319v1257h269v-1257h319q63 0 63 64v1193h269v-1257q0 -128 -53 -181t-181 -53z" />
    <glyph glyph-name="afii10043" unicode="&#x429;" horiz-adv-x="1920" 
d="M1653 0h-1283q-128 0 -181 53t-53 181v1257h269v-1193q0 -64 64 -64h319v1257h269v-1257h382v1257h269v-1257h192v-532h-247v298z" />
    <glyph glyph-name="afii10044" unicode="&#x42a;" horiz-adv-x="1451" 
d="M622 1256v-353h532q87 0 137.5 -23.5t73.5 -74t23 -136.5v-435q0 -128 -53 -181t-181 -53h-566q-128 0 -181 53t-53 181v959q0 63 -64 63h-290v235h388q128 0 181 -53.5t53 -181.5zM685 234h372q63 0 63 64v307q0 64 -63 64h-435v-371q0 -64 63 -64z" />
    <glyph glyph-name="afii10045" unicode="&#x42b;" horiz-adv-x="1737" 
d="M1589 0h-268v1491h268v-1491zM916 0h-546q-128 0 -181 53t-53 181v1257h269v-588h511q86 0 137 -23.5t74 -74t23 -136.5v-435q0 -128 -53 -181t-181 -53zM469 234h348q65 0 65 64v307q0 64 -65 64h-412v-371q0 -64 64 -64z" />
    <glyph glyph-name="afii10046" unicode="&#x42c;" 
d="M937 0h-567q-128 0 -181 53t-53 181v1257h269v-588h532q86 0 137 -23.5t74 -74t23 -136.5v-435q0 -128 -53 -181t-181 -53zM469 234h370q64 0 64 64v307q0 64 -64 64h-434v-371q0 -64 64 -64z" />
    <glyph glyph-name="afii10047" unicode="&#x42d;" horiz-adv-x="1085" 
d="M85 1491h639q128 0 181.5 -53.5t53.5 -181.5v-1022q0 -128 -53.5 -181t-181.5 -53h-639v234h541q65 0 65 64v341h-606v235h606v319q0 63 -65 63h-541v235z" />
    <glyph glyph-name="afii10048" unicode="&#x42e;" horiz-adv-x="1766" 
d="M843 1491h563q65 0 109 -12.5t72 -41t40.5 -72.5t12.5 -109v-1022q0 -128 -53 -181t-181 -53h-563q-127 0 -180.5 53t-53.5 181v405h-192v-639h-268v1491h268v-617h192v382q0 128 53.5 181.5t180.5 53.5zM1307 1256h-366q-63 0 -63 -63v-895q0 -64 63 -64h366q65 0 65 64
v895q0 63 -65 63z" />
    <glyph glyph-name="afii10049" unicode="&#x42f;" horiz-adv-x="1277" 
d="M341 1491h566q128 0 181.5 -53.5t53.5 -181.5v-1256h-268v567h-54l-450 -567h-327l457 567h-159q-128 0 -181.5 53t-53.5 181v455q0 128 53.5 181.5t181.5 53.5zM809 1256h-370q-65 0 -65 -63v-329q0 -63 65 -63h435v392q0 63 -65 63z" />
    <glyph glyph-name="afii10065" unicode="&#x430;" horiz-adv-x="1034" 
d="M77 213v234q0 112 51 162.5t162 50.5h401v149q0 23 -10 33t-33 10h-520v213h596q111 0 162 -51t51 -162v-639q0 -111 -51 -162t-162 -51h-434q-111 0 -162 51t-51 162zM691 256v191h-325q-23 0 -33 -10t-10 -32v-149q0 -23 10 -33t33 -10h282q23 0 33 10t10 33z" />
    <glyph glyph-name="afii10066" unicode="&#x431;" horiz-adv-x="1085" 
d="M354 1236v-171h421q111 0 162 -51t51 -162v-639q0 -111 -51 -162t-162 -51h-456q-74 0 -121 22.5t-69.5 69t-22.5 121.5v1065q0 112 51 162.5t162 50.5h606v-213h-529q-22 0 -32 -10t-10 -32zM396 213h303q23 0 33 10t10 33v553q0 23 -10 33t-33 10h-345v-596
q0 -23 10 -33t32 -10z" />
    <glyph glyph-name="afii10067" unicode="&#x432;" horiz-adv-x="1043" 
d="M959 382v-169q0 -111 -51 -162t-162 -51h-435q-112 0 -162.5 51t-50.5 162v639q0 111 50.5 162t162.5 51h435q111 0 162 -51t51 -162v-130q0 -44 -10 -76.5t-33 -56.5t-60 -38q55 -22 79 -63t24 -106zM345 445v-189q0 -23 10 -33t33 -10h281q15 0 24.5 4.5t13.5 14
t4 24.5v146q0 43 -42 43h-324zM345 809v-151h324q15 0 24.5 4.5t13.5 14t4 24.5v108q0 15 -4 24.5t-13.5 14t-24.5 4.5h-281q-23 0 -33 -10t-10 -33z" />
    <glyph glyph-name="afii10068" unicode="&#x433;" horiz-adv-x="787" 
d="M345 809v-809h-247v852q0 111 50.5 162t162.5 51h477v-213h-400q-23 0 -33 -10t-10 -33z" />
    <glyph glyph-name="afii10069" unicode="&#x434;" horiz-adv-x="1305" 
d="M1059 0h-811v-298h-227v511h139l311 722q30 71 70 105.5t113 34.5q74 0 114.5 -34t70.5 -104l309 -724h136v-511h-225v298zM892 213l-234 586h-8l-235 -586h477z" />
    <glyph glyph-name="afii10070" unicode="&#x435;" horiz-adv-x="1034" 
d="M959 852v-226q0 -56 -12.5 -96t-38.5 -66t-66 -38.5t-96 -12.5h-401v-157q0 -23 10 -33t33 -10h541v-213h-618q-112 0 -162.5 51t-50.5 162v639q0 111 50.5 162t162.5 51h435q111 0 162 -51t51 -162zM345 809v-183h324q15 0 24.5 4.5t13.5 14t4 24.5v140q0 15 -4 24.5
t-13.5 14t-24.5 4.5h-281q-23 0 -33 -10t-10 -33z" />
    <glyph glyph-name="afii10072" unicode="&#x436;" horiz-adv-x="1516" 
d="M1161 449h-279v-449h-248v449h-278q-23 0 -33 -10t-10 -32v-407h-247v449q0 112 50.5 162.5t162.5 50.5h70l-286 403h269l273 -403h29v403h248v-403h30l273 403h268l-286 -403h71q111 0 162 -50.5t51 -162.5v-449h-248v407q0 22 -10 32t-32 10z" />
    <glyph glyph-name="afii10073" unicode="&#x437;" horiz-adv-x="890" 
d="M675 0h-632v213h492v9l-230 242q-11 13 -16 20.5t-13 21.5t-12 28.5t-4 30.5q0 59 45 100l211 178v9h-473v213h632q173 0 173 -136q0 -77 -79 -151l-239 -211v-9l245 -273q73 -78 73 -151q0 -134 -173 -134z" />
    <glyph glyph-name="afii10074" unicode="&#x438;" horiz-adv-x="1094" 
d="M996 0h-238v705h-8l-279 -577q-37 -76 -77.5 -107t-114.5 -31q-91 0 -136 39.5t-45 115.5v920h239v-707h8l287 592q16 31 34.5 54.5t41 39.5t50 23.5t59.5 7.5q45 0 79.5 -12.5t52.5 -31t29.5 -43t14.5 -43t3 -36.5v-909z" />
    <glyph glyph-name="afii10075" unicode="&#x439;" horiz-adv-x="1094" 
d="M996 0h-238v705h-8l-279 -577q-37 -76 -77.5 -107t-114.5 -31q-91 0 -136 39.5t-45 115.5v920h239v-707h8l287 592q16 31 34.5 54.5t41 39.5t50 23.5t59.5 7.5q45 0 79.5 -12.5t52.5 -31t29.5 -43t14.5 -43t3 -36.5v-909zM494 1395h171q22 0 32 10t10 32v54h213v-70
q0 -112 -50.5 -163t-162.5 -51h-256q-111 0 -162 51t-51 163v70h213v-54q0 -22 10 -32t33 -10z" />
    <glyph glyph-name="afii10076" unicode="&#x43a;" horiz-adv-x="1038" 
d="M673 449h-319v-449h-248v1065h248v-403h30l315 403h277l-324 -403h98q111 0 162 -50.5t51 -162.5v-449h-247v407q0 22 -10.5 32t-32.5 10z" />
    <glyph glyph-name="afii10077" unicode="&#x43b;" horiz-adv-x="1077" 
d="M823 0l-280 790h-8l-279 -790h-256l343 935q30 82 78.5 112t117 30t117 -30t77.5 -112l344 -935h-254z" />
    <glyph glyph-name="afii10078" unicode="&#x43c;" horiz-adv-x="1268" 
d="M1171 0h-246v699h-9l-130 -280q-22 -48 -61 -74t-89 -26q-31 0 -59 12.5t-50 34.5t-37 53l-136 280h-9v-699h-247v912q0 163 172 163q70 0 113 -29t70 -85l179 -375h9l174 375q53 114 184 114q172 0 172 -163v-912z" />
    <glyph glyph-name="afii10079" unicode="&#x43d;" horiz-adv-x="1073" 
d="M967 0h-247v443h-366v-443h-248v1065h248v-409h366v409h247v-1065z" />
    <glyph glyph-name="afii10080" unicode="&#x43e;" horiz-adv-x="1077" 
d="M98 213v639q0 111 50.5 162t162.5 51h455q112 0 163 -51t51 -162v-639q0 -111 -51 -162t-163 -51h-455q-112 0 -162.5 51t-50.5 162zM691 852h-303q-23 0 -33 -10t-10 -33v-553q0 -23 10 -33t33 -10h303q15 0 24 4.5t13.5 14t4.5 24.5v553q0 15 -4.5 24.5t-13.5 14
t-24 4.5z" />
    <glyph glyph-name="afii10081" unicode="&#x43f;" horiz-adv-x="1055" 
d="M669 852h-281q-23 0 -33 -10t-10 -33v-809h-247v852q0 111 50.5 162t162.5 51h435q111 0 162 -51t51 -162v-852h-248v809q0 15 -4 24.5t-13.5 14t-24.5 4.5z" />
    <glyph glyph-name="afii10082" unicode="&#x440;" horiz-adv-x="1085" 
d="M354 0v-426h-248v1278q0 111 51 162t162 51h456q113 0 163 -50.5t50 -162.5v-639q0 -112 -50 -162.5t-163 -50.5h-421zM699 852h-303q-22 0 -32 -10t-10 -33v-596h345q23 0 33 10t10 33v553q0 23 -10 33t-33 10z" />
    <glyph glyph-name="afii10083" unicode="&#x441;" horiz-adv-x="885" 
d="M98 213v639q0 111 50.5 162t162.5 51h512v-213h-435q-23 0 -33 -10t-10 -33v-553q0 -23 10 -33t33 -10h435v-213h-512q-112 0 -162.5 51t-50.5 162z" />
    <glyph glyph-name="afii10084" unicode="&#x442;" horiz-adv-x="945" 
d="M596 0h-247v852h-328v213h904v-213h-329v-852z" />
    <glyph glyph-name="afii10085" unicode="&#x443;" horiz-adv-x="1064" 
d="M345 1065v-809q0 -23 10 -33t33 -10h323v852h248v-1278q0 -56 -12.5 -96t-38.5 -66.5t-66 -38.5t-96 -12h-618v213h541q22 0 32 10t10 32v171h-400q-112 0 -162.5 51t-50.5 162v852h247z" />
    <glyph glyph-name="afii10086" unicode="&#x444;" horiz-adv-x="1469" 
d="M98 213v639q0 111 50.5 162t162.5 51h301v426h246v-426h301q111 0 162 -51t51 -162v-639q0 -111 -51 -162t-162 -51h-301v-426h-246v426h-301q-112 0 -162.5 51t-50.5 162zM1082 852h-224v-639h224q22 0 32 10t10 33v553q0 15 -4.5 24.5t-13.5 14t-24 4.5zM345 256
q0 -23 10 -33t33 -10h224v639h-224q-23 0 -33 -10t-10 -33v-553z" />
    <glyph glyph-name="afii10087" unicode="&#x445;" horiz-adv-x="992" 
d="M1014 0h-288l-230 356l-230 -356h-287l377 547l-360 518h283l217 -330l217 330h281l-355 -520z" />
    <glyph glyph-name="afii10088" unicode="&#x446;" horiz-adv-x="1132" 
d="M388 213h323v852h248v-852h153v-511h-226v298h-575q-112 0 -162.5 51t-50.5 162v852h247v-809q0 -23 10 -33t33 -10z" />
    <glyph glyph-name="afii10089" unicode="&#x447;" horiz-adv-x="1022" 
d="M366 618h303v447h247v-1065h-247v405h-379q-111 0 -162 50.5t-51 162.5v447h246v-405q0 -15 4.5 -24t14 -13.5t24.5 -4.5z" />
    <glyph glyph-name="afii10090" unicode="&#x448;" horiz-adv-x="1601" 
d="M388 213h289v852h248v-852h289q22 0 32 10t10 33v809h248v-852q0 -111 -51 -162t-162 -51h-980q-112 0 -162.5 51t-50.5 162v852h247v-809q0 -23 10 -33t33 -10z" />
    <glyph glyph-name="afii10091" unicode="&#x449;" horiz-adv-x="1677" 
d="M388 213h289v852h248v-852h331v852h248v-852h153v-511h-226v298h-1120q-112 0 -162.5 51t-50.5 162v852h247v-809q0 -23 10 -33t33 -10z" />
    <glyph glyph-name="afii10092" unicode="&#x44a;" horiz-adv-x="1209" 
d="M486 0q-56 0 -96 12.5t-66.5 38.5t-39 66t-12.5 96v596q0 15 -4 24.5t-13.5 14t-24.5 4.5h-230v213h307q111 0 162 -51t51 -162v-192h400q112 0 163 -50.5t51 -162.5v-234q0 -111 -51 -162t-163 -51h-434zM563 213h280q23 0 33 10t10 33v149q0 22 -10 32t-33 10h-323
v-191q0 -9 1.5 -16t5 -12t8.5 -8.5t12 -5t16 -1.5z" />
    <glyph glyph-name="afii10093" unicode="&#x44b;" horiz-adv-x="1405" 
d="M1052 0v1065h247v-1065h-247zM345 1065v-405h379q111 0 162 -50.5t51 -162.5v-234q0 -111 -51 -162t-162 -51h-413q-112 0 -162.5 51t-50.5 162v852h247zM388 213h260q23 0 33 10t10 33v149q0 22 -10 32t-33 10h-303v-191q0 -23 10 -33t33 -10z" />
    <glyph glyph-name="afii10094" unicode="&#x44c;" horiz-adv-x="1034" 
d="M345 1065v-405h401q111 0 162 -50.5t51 -162.5v-234q0 -111 -51 -162t-162 -51h-435q-112 0 -162.5 51t-50.5 162v852h247zM388 213h281q15 0 24.5 4.5t13.5 14t4 24.5v149q0 22 -10 32t-32 10h-324v-191q0 -23 10 -33t33 -10z" />
    <glyph glyph-name="afii10095" unicode="&#x44d;" horiz-adv-x="979" 
d="M634 256v187h-549v213h549v153q0 15 -4 24.5t-13.5 14t-24.5 4.5h-507v213h584q111 0 162 -51t51 -162v-639q0 -111 -51 -162t-162 -51h-584v213h507q15 0 24.5 4.5t13.5 14t4 24.5z" />
    <glyph glyph-name="afii10096" unicode="&#x44e;" horiz-adv-x="1456" 
d="M498 213v230h-144v-443h-248v1065h248v-409h144v196q0 111 51 162t162 51h435q112 0 162.5 -51t50.5 -162v-639q0 -111 -50.5 -162t-162.5 -51h-435q-111 0 -162 51t-51 162zM1069 852h-281q-15 0 -24.5 -4.5t-13.5 -14t-4 -24.5v-553q0 -23 10 -33t32 -10h281
q23 0 33 10t10 33v553q0 23 -10 33t-33 10z" />
    <glyph glyph-name="afii10097" unicode="&#x44f;" horiz-adv-x="1043" 
d="M699 0v384h-30l-315 -384h-311l327 384h-72q-111 0 -162 50.5t-51 161.5v256q0 111 51 162t162 51h435q112 0 162 -51t50 -162v-852h-246zM656 852h-282q-22 0 -32 -10t-10 -33v-170q0 -23 10 -33t32 -10h325v213q0 23 -10 33t-33 10z" />
    <glyph glyph-name="afii10071" unicode="&#x451;" horiz-adv-x="1034" 
d="M959 852v-226q0 -56 -12.5 -96t-38.5 -66t-66 -38.5t-96 -12.5h-401v-157q0 -23 10 -33t33 -10h541v-213h-618q-112 0 -162.5 51t-50.5 162v639q0 111 50.5 162t162.5 51h435q111 0 162 -51t51 -162zM345 809v-183h324q15 0 24.5 4.5t13.5 14t4 24.5v140q0 15 -4 24.5
t-13.5 14t-24.5 4.5h-281q-23 0 -33 -10t-10 -33zM187 1357q0 56 39 95t95.5 39t95.5 -39t39 -95t-39 -95t-95.5 -39t-95.5 39t-39 95zM579 1357q0 56 39 95t95.5 39t95.5 -39t39 -95t-39 -95t-95.5 -39t-95.5 39t-39 95z" />
    <glyph glyph-name="afii10099" unicode="&#x452;" horiz-adv-x="1115" 
d="M1031 447v-660q0 -75 -22.5 -122t-69.5 -69t-122 -22h-276v213h201q22 0 32 10t10 32v576q0 22 -10 32t-32 10h-325v-447h-246v878h-171v187h171v426h246v-426h469v-187h-469v-218h400q112 0 163 -50.5t51 -162.5z" />
    <glyph glyph-name="afii10100" unicode="&#x453;" horiz-adv-x="787" 
d="M345 809v-809h-247v852q0 111 50.5 162t162.5 51h477v-213h-400q-23 0 -33 -10t-10 -33zM238 1284l260 322l158 -117l-262 -320z" />
    <glyph glyph-name="afii10101" unicode="&#x454;" horiz-adv-x="977" 
d="M364 443l107 -187q22 -43 64 -43h357v-213h-392q-32 0 -60.5 6t-50 14.5t-42.5 26.5t-34.5 31t-31.5 39.5t-27 42.5l-27 48q-2 3 -3 5l-106 187q-18 30 -27.5 48t-18.5 46t-9 55q0 73 55 150l106 153q10 15 29 44t30 44t29.5 38.5t35.5 36t40.5 26t51 19t60.5 5.5h392
v-213h-357q-16 0 -29 -7.5t-19 -14t-16 -21.5l-107 -153h528v-213h-528z" />
    <glyph glyph-name="afii10102" unicode="&#x455;" horiz-adv-x="957" 
d="M894 433v-220q0 -111 -50.5 -162t-162.5 -51h-596v213h520q23 0 33 10t10 33v134q0 23 -10 33t-33 10h-328q-112 0 -163 50.5t-51 162.5v206q0 111 51 162t163 51h597v-213h-520q-16 0 -25 -4.5t-13.5 -14t-4.5 -24.5v-121q0 -22 10 -32t33 -10h327q112 0 162.5 -51
t50.5 -162z" />
    <glyph glyph-name="afii10103" unicode="&#x456;" horiz-adv-x="459" 
d="M106 0v1065h248v-1065h-248zM96 1357q0 56 39 95t95 39t95 -39t39 -95t-39 -95t-95 -39t-95 39t-39 95z" />
    <glyph glyph-name="afii10104" unicode="&#x457;" horiz-adv-x="459" 
d="M106 0v1065h248v-1065h-248zM-77 1357q0 56 39 95t95 39t95 -39t39 -95t-39 -95t-95 -39t-95 39t-39 95zM268 1357q0 56 39 95t95.5 39t95.5 -39t39 -95t-39 -95t-95.5 -39t-95.5 39t-39 95z" />
    <glyph glyph-name="afii10105" unicode="&#x458;" horiz-adv-x="538" 
d="M175 1357q0 56 39 95t95 39t95 -39t39 -95t-39 -95t-95 -39t-95 39t-39 95zM185 -171v1236h248v-1278q0 -75 -22.5 -122t-69.5 -69t-122 -22h-347v213h270q23 0 33 10t10 32z" />
    <glyph glyph-name="afii10106" unicode="&#x459;" horiz-adv-x="1705" 
d="M790 874h-8l-518 -874h-285l547 905q33 54 65 89t67.5 53t69 24t79.5 6q115 0 172.5 -56.5t57.5 -156.5v-204h379q101 0 157.5 -56.5t56.5 -156.5v-234q0 -100 -56.5 -156.5t-157.5 -56.5h-412q-101 0 -157.5 56.5t-56.5 156.5v661zM1382 447h-345v-234h345v234z" />
    <glyph glyph-name="afii10107" unicode="&#x45a;" horiz-adv-x="1614" 
d="M699 1065h246v-409h380q66 0 114.5 -25.5t73.5 -73.5t25 -114v-230q0 -100 -56 -156.5t-157 -56.5h-413q-101 0 -157 56.5t-56 156.5v230h-345v-443h-248v1065h248v-409h345v409zM1291 443h-346v-230h346v230z" />
    <glyph glyph-name="afii10108" unicode="&#x45b;" horiz-adv-x="1115" 
d="M742 447h-325v-447h-246v878h-171v187h171v426h246v-426h469v-187h-469v-218h400q112 0 163 -50.5t51 -162.5v-447h-247v405q0 22 -10 32t-32 10z" />
    <glyph glyph-name="afii10109" unicode="&#x45c;" horiz-adv-x="1038" 
d="M673 449h-319v-449h-248v1065h248v-403h30l315 403h277l-324 -403h98q111 0 162 -50.5t51 -162.5v-449h-247v407q0 22 -10.5 32t-32.5 10zM317 1284l260 322l158 -117l-262 -320z" />
    <glyph glyph-name="afii10110" unicode="&#x45e;" horiz-adv-x="1064" 
d="M345 1065v-809q0 -23 10 -33t33 -10h323v852h248v-1278q0 -56 -12.5 -96t-38.5 -66.5t-66 -38.5t-96 -12h-618v213h541q22 0 32 10t10 32v171h-400q-112 0 -162.5 51t-50.5 162v852h247zM479 1395h171q15 0 24.5 4t14 13.5t4.5 24.5v54h212v-70q0 -75 -22 -122t-69 -69.5
t-121 -22.5h-256q-112 0 -162.5 51t-50.5 163v70h213v-54q0 -22 10 -32t32 -10z" />
    <glyph glyph-name="afii10193" unicode="&#x45f;" horiz-adv-x="1055" 
d="M388 213h281q15 0 24.5 4.5t13.5 14t4 24.5v809h248v-852q0 -111 -51 -162t-162 -51h-94v-298h-247v298h-94q-112 0 -162.5 51t-50.5 162v852h247v-809q0 -23 10 -33t33 -10z" />
    <glyph glyph-name="afii10050" unicode="&#x490;" horiz-adv-x="988" 
d="M754 1256h-285q-64 0 -64 -63v-1193h-269v1256q0 128 53 181.5t181 53.5h307q65 0 65 64v256h246v-320q0 -128 -53 -181.5t-181 -53.5z" />
    <glyph glyph-name="afii10098" unicode="&#x491;" horiz-adv-x="787" 
d="M563 1108v278h225v-321q0 -112 -50.5 -162.5t-162.5 -50.5h-195q-35 -3 -35 -43v-809h-247v852q0 111 50.5 162t162.5 51h209q15 0 24.5 4.5t14 13.5t4.5 25z" />
    <glyph glyph-name="uni2000" unicode="&#x2000;" horiz-adv-x="1010" 
 />
    <glyph glyph-name="uni2001" unicode="&#x2001;" horiz-adv-x="2020" 
 />
    <glyph glyph-name="uni2002" unicode="&#x2002;" horiz-adv-x="1010" 
 />
    <glyph glyph-name="uni2003" unicode="&#x2003;" horiz-adv-x="2020" 
 />
    <glyph glyph-name="uni2004" unicode="&#x2004;" horiz-adv-x="673" 
 />
    <glyph glyph-name="uni2005" unicode="&#x2005;" horiz-adv-x="505" 
 />
    <glyph glyph-name="uni2006" unicode="&#x2006;" horiz-adv-x="336" 
 />
    <glyph glyph-name="uni2007" unicode="&#x2007;" horiz-adv-x="336" 
 />
    <glyph glyph-name="uni2008" unicode="&#x2008;" horiz-adv-x="252" 
 />
    <glyph glyph-name="uni2009" unicode="&#x2009;" horiz-adv-x="404" 
 />
    <glyph glyph-name="uni200A" unicode="&#x200a;" horiz-adv-x="112" 
 />
    <glyph glyph-name="uni2010" unicode="&#x2010;" horiz-adv-x="809" 
d="M85 482v234h639v-234h-639z" />
    <glyph glyph-name="uni2011" unicode="&#x2011;" horiz-adv-x="809" 
d="M85 482v234h639v-234h-639z" />
    <glyph glyph-name="figuredash" unicode="&#x2012;" horiz-adv-x="809" 
d="M85 482v234h639v-234h-639z" />
    <glyph glyph-name="endash" unicode="&#x2013;" horiz-adv-x="1064" 
d="M85 486v213h895v-213h-895z" />
    <glyph glyph-name="emdash" unicode="&#x2014;" horiz-adv-x="1618" 
d="M85 486v213h1449v-213h-1449z" />
    <glyph glyph-name="quoteleft" unicode="&#x2018;" horiz-adv-x="565" 
d="M502 1148l-199 -117l-240 400l201 115z" />
    <glyph glyph-name="quoteright" unicode="&#x2019;" horiz-adv-x="565" 
d="M264 1031l-201 117l240 398l199 -115z" />
    <glyph glyph-name="quotesinglbase" unicode="&#x201a;" horiz-adv-x="561" 
d="M260 -213l-197 113l240 398l195 -111z" />
    <glyph glyph-name="quotedblleft" unicode="&#x201c;" horiz-adv-x="949" 
d="M886 1136l-181 -110l-238 401l181 107zM484 1136l-181 -110l-240 401l182 107z" />
    <glyph glyph-name="quotedblright" unicode="&#x201d;" horiz-adv-x="949" 
d="M245 1026l-182 110l240 398l181 -107zM648 1026l-181 110l238 398l181 -107z" />
    <glyph glyph-name="quotedblbase" unicode="&#x201e;" horiz-adv-x="949" 
d="M245 -209l-182 109l240 398l181 -107zM648 -209l-181 109l238 398l181 -107z" />
    <glyph glyph-name="ellipsis" unicode="&#x2026;" horiz-adv-x="1323" 
d="M85 138q0 64 43.5 108t107.5 44t108 -44t44 -108t-44 -107t-108 -43t-107.5 43t-43.5 107zM512 138q0 64 43.5 108t107 44t107 -44t43.5 -108t-43.5 -107t-107 -43t-107 43t-43.5 107zM937 138q0 64 44 108t108 44t107.5 -44t43.5 -108t-43.5 -107t-107.5 -43t-108 43
t-44 107z" />
    <glyph glyph-name="uni202F" unicode="&#x202f;" horiz-adv-x="404" 
 />
    <glyph glyph-name="guilsinglleft" unicode="&#x2039;" horiz-adv-x="699" 
d="M616 980l-288 -392l288 -392l-173 -113l-358 505l358 505z" />
    <glyph glyph-name="guilsinglright" unicode="&#x203a;" horiz-adv-x="699" 
d="M85 196l287 392l-287 392l173 113l358 -505l-358 -505z" />
    <glyph glyph-name="uni205F" unicode="&#x205f;" horiz-adv-x="505" 
 />
    <glyph glyph-name="Euro" unicode="&#x20ac;" 
d="M451 1491h657v-235h-559q-63 0 -63 -63v-183h447v-187h-447v-154h447v-187h-447v-184q0 -64 63 -64h559v-234h-657q-128 0 -181 53t-53 181v248h-132v187h132v154h-132v187h132v246q0 128 53.5 181.5t180.5 53.5z" />
    <glyph glyph-name="trademark" unicode="&#x2122;" horiz-adv-x="1880" 
d="M553 639h-212v664h-256v188h724v-188h-256v-664zM1544 1301l-91 -281q-12 -37 -46.5 -57t-79.5 -20q-46 0 -80 19t-46 58l-91 281h-9v-662h-200v718q0 29 10 53t27 40.5t40 27.5t48 16.5t51 5.5q40 0 67.5 -4t52 -15t40.5 -32.5t26 -53.5l60 -208h8l59 208
q31 105 187 105q33 0 63.5 -8.5t56.5 -25t41 -45t15 -64.5v-718h-200v662h-9z" />
    <glyph glyph-name="uniE000" unicode="&#xe000;" horiz-adv-x="1064" 
d="M0 1065h1065v-1065h-1065v1065z" />
    </font>
</defs>
</svg>
